<svg xmlns="http://www.w3.org/2000/svg" xmlns:xlink="http://www.w3.org/1999/xlink" width="1920" zoomAndPan="magnify" viewBox="0 0 1440 809.999993" height="1080" preserveAspectRatio="xMidYMid meet" version="1.0"><rect x="-144" width="1728" fill="#ffffff" y="-80.999999" height="971.999992" fill-opacity="1"/><rect x="-144" width="1728" fill="#ffffff" y="-80.999999" height="971.999992" fill-opacity="1"/><rect x="-144" width="1728" fill="#ffffff" y="-80.999999" height="971.999992" fill-opacity="1"/><rect x="-144" width="1728" fill="#ffffff" y="-80.999999" height="971.999992" fill-opacity="1"/><path fill="#9ababc" d="M -264.074219 809.199219 L -0.808594 -0.320312 L 1641.035156 533.632812 L 1377.769531 1343.148438 L -264.074219 809.199219 " fill-opacity="1" fill-rule="nonzero"/><path fill="#9ababc" d="M -0.207031 0 L 412.449219 22.097656 L 390.355469 434.753906 L -22.304688 412.660156 L -0.207031 0 " fill-opacity="1" fill-rule="nonzero"/><path fill="#9ababc" d="M 389.320312 20.769531 L 801.976562 42.867188 L 779.839844 456.273438 L 367.183594 434.175781 L 389.320312 20.769531 " fill-opacity="1" fill-rule="nonzero"/><path fill="#9ababc" d="M 763.941406 41.039062 L 1176.59375 63.136719 L 1154.496094 475.792969 L 741.84375 453.699219 L 763.941406 41.039062 " fill-opacity="1" fill-rule="nonzero"/><path fill="#9ababc" d="M 1096.421875 58.628906 L 1509.074219 80.726562 L 1485.773438 515.851562 L 1073.121094 493.757812 L 1096.421875 58.628906 " fill-opacity="1" fill-rule="nonzero"/></svg>